<?xml version="1.0" standalone="no"?>
<!DOCTYPE svg PUBLIC "-//W3C//DTD SVG 20010904//EN"
 "http://www.w3.org/TR/2001/REC-SVG-20010904/DTD/svg10.dtd">
<svg version="1.0" xmlns="http://www.w3.org/2000/svg"
 width="205.000000pt" height="205.000000pt" viewBox="0 0 205.000000 205.000000"
 preserveAspectRatio="xMidYMid meet">
<metadata>
Created by potrace 1.14, written by Peter Selinger 2001-2017
</metadata>
<g transform="translate(0.000000,205.000000) scale(0.100000,-0.100000)"
fill="#000000" stroke="none">
<path d="M0 1030 l0 -940 1025 0 1025 0 0 940 0 940 -1025 0 -1025 0 0 -940z
m1100 194 c36 -45 74 -95 85 -110 11 -15 29 -39 41 -53 57 -70 184 -243 184
-251 0 -5 -6 -13 -14 -17 -7 -4 -41 -32 -75 -62 -44 -39 -61 -60 -59 -75 2
-11 10 -22 20 -24 14 -3 181 134 287 235 19 18 37 33 40 33 3 0 16 -15 28 -33
12 -17 33 -43 46 -57 12 -14 38 -47 57 -75 19 -27 65 -88 102 -134 37 -47 68
-88 68 -93 0 -4 -389 -8 -865 -8 -476 0 -865 2 -865 5 0 4 35 54 121 174 18
24 59 85 92 135 34 50 64 93 67 96 4 3 42 56 86 118 43 63 110 157 147 210 38
54 89 128 115 167 79 118 65 118 151 2 42 -55 105 -138 141 -183z"/>
<path d="M809 1350 c-35 -49 -88 -122 -116 -162 -29 -39 -53 -77 -53 -85 0
-19 28 -16 64 6 l32 20 12 -67 c7 -37 17 -71 22 -76 16 -16 39 3 46 39 3 19
10 37 14 40 5 3 11 23 15 45 4 22 10 40 13 40 4 0 20 -21 36 -48 39 -62 86
-122 96 -122 4 0 10 29 12 65 2 35 7 67 10 71 4 3 43 -20 88 -51 59 -41 85
-54 93 -46 7 7 5 17 -9 33 -10 12 -22 27 -27 33 -9 12 -208 286 -238 328 -11
15 -25 27 -33 27 -7 0 -41 -40 -77 -90z"/>
</g>
</svg>
