<svg xmlns="http://www.w3.org/2000/svg" version="1.1" xmlns:xlink="http://www.w3.org/1999/xlink" xmlns:svgjs="http://svgjs.dev/svgjs" width="1000" height="1000" viewBox="0 0 1000 1000"><rect width="1000" height="1000" fill="#ffffff"></rect><g transform="matrix(0.7,0,0,0.7,149.57575757575756,411.0090830562153)"><svg viewBox="0 0 396 101" data-background-color="#ffffff" preserveAspectRatio="xMidYMid meet" height="255" width="1000" xmlns="http://www.w3.org/2000/svg" xmlns:xlink="http://www.w3.org/1999/xlink"><g id="tight-bounds" transform="matrix(1,0,0,1,0.2400000000000091,-0.14659601500136432)"><svg viewBox="0 0 395.52 101.29304033865472" height="101.29304033865472" width="395.52"><g><svg viewBox="0 0 554.2298762129205 141.9387874396313" height="101.29304033865472" width="395.52"><g transform="matrix(1,0,0,1,158.70987621292056,19.616720984782624)"><svg viewBox="0 0 395.5199999999999 102.70534547006606" height="102.70534547006606" width="395.5199999999999"><g id="textblocktransform"><svg viewBox="0 0 395.5199999999999 102.70534547006606" height="102.70534547006606" width="395.5199999999999" id="textblock"><g><svg viewBox="0 0 395.5199999999999 71.04105785123967" height="71.04105785123967" width="395.5199999999999"><g transform="matrix(1,0,0,1,0,0)"><svg width="395.5199999999999" viewBox="1.95 -38.85 272.22 48.900000000000006" height="71.04105785123967" data-palette-color="#3559c7"><path d="M29.05-7.55L31.35-2.6Q30.75-2.15 29.68-1.63 28.6-1.1 27.15-0.65 25.7-0.2 23.93 0.1 22.15 0.4 20.15 0.4L20.15 0.4Q15.9 0.4 12.53-1.07 9.15-2.55 6.8-5.05 4.45-7.55 3.2-10.85 1.95-14.15 1.95-17.85L1.95-17.85Q1.95-21.95 3.43-25.4 4.9-28.85 7.45-31.35 10-33.85 13.43-35.25 16.85-36.65 20.7-36.65L20.7-36.65Q22.15-36.65 23.65-36.45 25.15-36.25 26.48-35.9 27.8-35.55 28.83-35.08 29.85-34.6 30.4-34.1L30.4-34.1Q30-33.5 29.78-33.1 29.55-32.7 29.3-32.27 29.05-31.85 28.75-31.3 28.45-30.75 27.95-29.85L27.95-29.85Q27.3-30.3 26.43-30.6 25.55-30.9 24.6-31.1 23.65-31.3 22.68-31.4 21.7-31.5 20.9-31.5L20.9-31.5Q18-31.5 15.53-30.43 13.05-29.35 11.25-27.53 9.45-25.7 8.43-23.3 7.4-20.9 7.4-18.3L7.4-18.3Q7.4-15.75 8.38-13.4 9.35-11.05 11.08-9.2 12.8-7.35 15.23-6.25 17.65-5.15 20.55-5.15L20.55-5.15Q22.1-5.15 23.55-5.45 25-5.75 26.18-6.15 27.35-6.55 28.13-6.95 28.9-7.35 29.05-7.55L29.05-7.55ZM47.1-21.45L46.15-15.95Q44.75-15.95 43.45-15.58 42.15-15.2 41.12-14.45 40.1-13.7 39.5-12.58 38.9-11.45 38.9-10L38.9-10 38.9 0 34.65 0 34.65-20.9 38.4-20.9Q38.5-19.35 38.57-18.07 38.65-16.8 38.75-15.55L38.75-15.55Q39.4-16.9 40.45-18 41.5-19.1 42.7-19.85 43.9-20.6 45.05-21.03 46.2-21.45 47.1-21.45L47.1-21.45ZM70.85-20.9L55.95 10.05 51.65 10.05Q52.35 8.6 52.97 7.28 53.6 5.95 54.22 4.58 54.85 3.2 55.5 1.73 56.15 0.25 56.95-1.45L56.95-1.45Q55.8-3.7 54.6-6.18 53.4-8.65 52.2-11.15 51-13.65 49.82-16.15 48.65-18.65 47.5-20.9L47.5-20.9 52.15-20.9Q53.95-17.35 55.12-14.9 56.3-12.45 57.07-10.68 57.85-8.9 58.32-7.65 58.8-6.4 59.15-5.35L59.15-5.35Q59.55-6.4 60.02-7.65 60.5-8.9 61.27-10.68 62.05-12.45 63.22-14.9 64.4-17.35 66.2-20.9L66.2-20.9 70.85-20.9ZM91.84-10.5L91.84-10.5Q91.84-11.95 91.39-13.18 90.94-14.4 90.09-15.3 89.24-16.2 88.04-16.73 86.84-17.25 85.34-17.25L85.34-17.25Q83.84-17.25 82.57-16.73 81.29-16.2 80.39-15.3 79.49-14.4 78.97-13.18 78.44-11.95 78.44-10.5L78.44-10.5Q78.44-9.05 78.97-7.8 79.49-6.55 80.39-5.65 81.29-4.75 82.57-4.23 83.84-3.7 85.34-3.7L85.34-3.7Q86.84-3.7 88.04-4.23 89.24-4.75 90.09-5.68 90.94-6.6 91.39-7.83 91.84-9.05 91.84-10.5ZM96.49-10.4L96.49-10.4Q96.49-8.05 95.69-6.05 94.89-4.05 93.44-2.6 91.99-1.15 89.97-0.33 87.94 0.5 85.54 0.5L85.54 0.5Q84.29 0.5 83.17 0.23 82.04-0.05 81.09-0.53 80.14-1 79.44-1.58 78.74-2.15 78.39-2.75L78.39-2.75Q78.39-2.5 78.42-2.23 78.44-1.95 78.44-1.7L78.44-1.7 78.44 10.05 74.14 10.05 74.14-20.9 78.29-20.9Q78.29-20.3 78.37-19.43 78.44-18.55 78.44-17.85L78.44-17.85Q78.84-18.45 79.52-19.07 80.19-19.7 81.12-20.23 82.04-20.75 83.19-21.1 84.34-21.45 85.74-21.45L85.74-21.45Q88.14-21.45 90.12-20.68 92.09-19.9 93.52-18.48 94.94-17.05 95.72-15 96.49-12.95 96.49-10.4ZM102.59-20.85L102.59-30.1 106.84-30.1 106.84-20.85 112.44-20.85 112.44-17.05 106.84-17.05 106.84 0 102.59 0 102.59-17.05 98.84-17.05 98.84-20.85 102.59-20.85ZM114.09-10.5L114.09-10.5Q114.09-12.75 114.96-14.75 115.84-16.75 117.34-18.23 118.84-19.7 120.86-20.58 122.89-21.45 125.24-21.45L125.24-21.45Q127.59-21.45 129.61-20.58 131.64-19.7 133.11-18.23 134.59-16.75 135.41-14.75 136.24-12.75 136.24-10.5L136.24-10.5Q136.24-8.25 135.41-6.25 134.59-4.25 133.11-2.75 131.64-1.25 129.61-0.38 127.59 0.5 125.19 0.5L125.19 0.5Q122.89 0.5 120.86-0.3 118.84-1.1 117.34-2.55 115.84-4 114.96-6.03 114.09-8.05 114.09-10.5ZM118.34-10.45L118.34-10.45Q118.34-9.05 118.86-7.83 119.39-6.6 120.31-5.68 121.24-4.75 122.46-4.23 123.69-3.7 125.09-3.7L125.09-3.7Q126.49-3.7 127.74-4.23 128.99-4.75 129.91-5.68 130.84-6.6 131.39-7.83 131.94-9.05 131.94-10.45L131.94-10.45Q131.94-11.85 131.39-13.1 130.84-14.35 129.91-15.28 128.99-16.2 127.74-16.73 126.49-17.25 125.09-17.25L125.09-17.25Q123.69-17.25 122.46-16.73 121.24-16.2 120.31-15.28 119.39-14.35 118.86-13.1 118.34-11.85 118.34-10.45ZM140.79 0L140.79-20.9 144.54-20.9Q144.64-19.35 144.71-18.07 144.79-16.8 144.89-15.55L144.89-15.55Q146.04-18.25 148.16-19.85 150.29-21.45 153.39-21.45L153.39-21.45Q156.54-21.45 158.44-19.7 160.34-17.95 160.44-15.2L160.44-15.2 160.44 0 156.14 0 156.14-13.25Q156.04-14.85 155.04-15.98 154.04-17.1 151.89-17.2L151.89-17.2Q150.39-17.2 149.14-16.68 147.89-16.15 146.99-15.25 146.09-14.35 145.56-13.1 145.04-11.85 145.04-10.35L145.04-10.35 145.04 0 140.79 0ZM165.68-28.9L165.68-28.9Q165.68-30.1 166.56-30.9 167.43-31.7 168.43-31.7L168.43-31.7Q169.43-31.7 170.28-30.9 171.13-30.1 171.13-28.9L171.13-28.9Q171.13-27.7 170.28-26.93 169.43-26.15 168.43-26.15L168.43-26.15Q167.43-26.15 166.56-26.93 165.68-27.7 165.68-28.9ZM170.48-20.9L170.48 0 166.23 0 166.23-20.9 170.48-20.9ZM178.28-20.85L178.28-30.1 182.53-30.1 182.53-20.85 188.13-20.85 188.13-17.05 182.53-17.05 182.53 0 178.28 0 178.28-17.05 174.53-17.05 174.53-20.85 178.28-20.85ZM196.18-18.1L196.18-18.1Q196.18-21.85 197.63-25.23 199.08-28.6 201.6-31.15 204.13-33.7 207.47-35.18 210.83-36.65 214.68-36.65L214.68-36.65Q218.48-36.65 221.85-35.18 225.23-33.7 227.75-31.15 230.28-28.6 231.75-25.23 233.23-21.85 233.23-18.1L233.23-18.1Q233.23-14.25 231.75-10.9 230.28-7.55 227.75-5.03 225.23-2.5 221.85-1.05 218.48 0.4 214.68 0.4L214.68 0.4Q210.83 0.4 207.47-1.05 204.13-2.5 201.6-5.03 199.08-7.55 197.63-10.9 196.18-14.25 196.18-18.1ZM201.63-18.05L201.63-18.05Q201.63-15.3 202.65-12.88 203.68-10.45 205.47-8.65 207.28-6.85 209.68-5.8 212.08-4.75 214.78-4.75L214.78-4.75Q217.48-4.75 219.85-5.8 222.23-6.85 224-8.65 225.78-10.45 226.8-12.88 227.83-15.3 227.83-18.1L227.83-18.1Q227.83-20.85 226.8-23.28 225.78-25.7 223.98-27.5 222.18-29.3 219.8-30.35 217.43-31.4 214.73-31.4L214.73-31.4Q212.03-31.4 209.63-30.35 207.22-29.3 205.45-27.5 203.68-25.7 202.65-23.25 201.63-20.8 201.63-18.05ZM249.17-19.05L249.17-19.05 246.92-16.05Q246.87-16.1 246.57-16.3 246.27-16.5 245.8-16.7 245.32-16.9 244.7-17.07 244.07-17.25 243.42-17.25L243.42-17.25Q242.57-17.25 241.75-16.85 240.92-16.45 240.92-15.35L240.92-15.35Q240.92-14.4 241.6-13.8 242.27-13.2 243.27-12.73 244.27-12.25 245.45-11.75 246.62-11.25 247.62-10.53 248.62-9.8 249.3-8.72 249.97-7.65 249.97-6L249.97-6Q249.97-3.2 248.05-1.38 246.12 0.45 242.77 0.45L242.77 0.45Q240.82 0.45 238.95-0.23 237.07-0.9 235.92-2.2L235.92-2.2Q236.27-2.55 236.7-3.1 237.12-3.65 237.55-4.15 237.97-4.65 238.25-4.98 238.52-5.3 238.57-5.3L238.57-5.3Q238.57-5.25 238.95-5 239.32-4.75 239.92-4.48 240.52-4.2 241.27-3.98 242.02-3.75 242.77-3.75L242.77-3.75Q243.97-3.75 244.82-4.35 245.67-4.95 245.67-5.95L245.67-5.95Q245.67-6.85 245-7.38 244.32-7.9 243.32-8.35 242.32-8.8 241.12-9.28 239.92-9.75 238.92-10.5 237.92-11.25 237.25-12.38 236.57-13.5 236.57-15.3L236.57-15.3Q236.57-17 237.2-18.15 237.82-19.3 238.8-20.03 239.77-20.75 240.97-21.08 242.17-21.4 243.27-21.4L243.27-21.4Q244.72-21.4 246.37-20.8 248.02-20.2 249.17-19.05ZM254.52 0L254.52-38.85 258.77-38.85 258.77-15.85Q259.87-18.35 261.87-19.88 263.87-21.4 267.02-21.45L267.02-21.45Q270.22-21.5 272.14-19.75 274.07-18 274.17-15.2L274.17-15.2 274.17 0 269.87 0 269.87-13.25Q269.77-14.85 268.77-15.98 267.77-17.1 265.62-17.2L265.62-17.2Q264.12-17.2 262.87-16.68 261.62-16.15 260.72-15.25 259.82-14.35 259.3-13.1 258.77-11.85 258.77-10.35L258.77-10.35 258.77 0 254.52 0Z" opacity="1" transform="matrix(1,0,0,1,0,0)" fill="#000000" class="wordmark-text-0" data-fill-palette-color="primary" id="text-0"></path></svg></g></svg></g><g transform="matrix(1,0,0,1,0,87.81214662452894)"><svg viewBox="0 0 232.20979199999994 14.893198845537139" height="14.893198845537139" width="232.20979199999994"><g transform="matrix(1,0,0,1,0,0)"><svg width="232.20979199999994" viewBox="3 -37 748.32 48" height="14.893198845537139" data-palette-color="#00085f"><path d="M16.95 0.5L16.95 0.5Q12.65 0.5 9.6-0.98 6.55-2.45 4.9-5.53 3.25-8.6 3.05-13.25L3.05-13.25Q3-15.45 3-17.48 3-19.5 3.05-21.7L3.05-21.7Q3.25-26.3 4.98-29.38 6.7-32.45 9.78-33.98 12.85-35.5 16.95-35.5L16.95-35.5Q21-35.5 24.08-33.98 27.15-32.45 28.9-29.38 30.65-26.3 30.8-21.7L30.8-21.7Q30.9-19.5 30.9-17.48 30.9-15.45 30.8-13.25L30.8-13.25Q30.65-8.6 28.98-5.53 27.3-2.45 24.25-0.98 21.2 0.5 16.95 0.5ZM16.95-3.75L16.95-3.75Q20.75-3.75 23.18-6.05 25.6-8.35 25.8-13.5L25.8-13.5Q25.9-15.75 25.9-17.53 25.9-19.3 25.8-21.5L25.8-21.5Q25.7-24.95 24.53-27.1 23.35-29.25 21.4-30.25 19.45-31.25 16.95-31.25L16.95-31.25Q14.45-31.25 12.5-30.25 10.55-29.25 9.38-27.1 8.2-24.95 8.05-21.5L8.05-21.5Q8-19.3 8-17.53 8-15.75 8.05-13.5L8.05-13.5Q8.25-8.35 10.7-6.05 13.15-3.75 16.95-3.75ZM46.55 0.5L46.55 0.5Q43.75 0.5 41.75-0.2 39.75-0.9 38.5-1.9 37.25-2.9 36.62-3.9 36-4.9 35.95-5.5L35.95-5.5Q35.9-6.05 36.3-6.35 36.7-6.65 37.1-6.65L37.1-6.65 39.35-6.65Q39.6-6.65 39.77-6.58 39.95-6.5 40.25-6.15L40.25-6.15Q40.9-5.45 41.7-4.75 42.5-4.05 43.67-3.6 44.85-3.15 46.6-3.15L46.6-3.15Q49.15-3.15 50.8-4.13 52.45-5.1 52.45-7L52.45-7Q52.45-8.25 51.77-9 51.1-9.75 49.37-10.35 47.65-10.95 44.65-11.6L44.65-11.6Q41.65-12.3 39.9-13.33 38.15-14.35 37.4-15.78 36.65-17.2 36.65-19L36.65-19Q36.65-20.85 37.75-22.58 38.85-24.3 40.97-25.4 43.1-26.5 46.3-26.5L46.3-26.5Q48.9-26.5 50.75-25.85 52.6-25.2 53.8-24.23 55-23.25 55.6-22.3 56.2-21.35 56.25-20.7L56.25-20.7Q56.3-20.2 55.95-19.88 55.6-19.55 55.15-19.55L55.15-19.55 53.05-19.55Q52.7-19.55 52.47-19.7 52.25-19.85 52.05-20.05L52.05-20.05Q51.55-20.7 50.87-21.35 50.2-22 49.12-22.43 48.05-22.85 46.3-22.85L46.3-22.85Q43.8-22.85 42.55-21.8 41.3-20.75 41.3-19.15L41.3-19.15Q41.3-18.2 41.85-17.45 42.4-16.7 43.95-16.1 45.5-15.5 48.55-14.8L48.55-14.8Q51.85-14.15 53.75-13.05 55.65-11.95 56.45-10.5 57.25-9.05 57.25-7.15L57.25-7.15Q57.25-5.05 56.05-3.3 54.85-1.55 52.45-0.53 50.05 0.5 46.55 0.5ZM66.75 0L64.25 0Q63.75 0 63.42-0.33 63.1-0.65 63.1-1.15L63.1-1.15 63.1-34.35Q63.1-34.85 63.42-35.18 63.75-35.5 64.25-35.5L64.25-35.5 66.75-35.5Q67.3-35.5 67.59-35.18 67.9-34.85 67.9-34.35L67.9-34.35 67.9-22.7Q69.25-24.4 71.2-25.45 73.15-26.5 76.15-26.5L76.15-26.5Q79.4-26.5 81.67-25.08 83.95-23.65 85.12-21.13 86.3-18.6 86.3-15.25L86.3-15.25 86.3-1.15Q86.3-0.65 86-0.33 85.7 0 85.15 0L85.15 0 82.65 0Q82.15 0 81.82-0.33 81.5-0.65 81.5-1.15L81.5-1.15 81.5-15Q81.5-18.5 79.8-20.48 78.09-22.45 74.8-22.45L74.8-22.45Q71.7-22.45 69.8-20.48 67.9-18.5 67.9-15L67.9-15 67.9-1.15Q67.9-0.65 67.59-0.33 67.3 0 66.75 0L66.75 0ZM118.99 0.5L118.99 0.5Q114.39 0.5 111.37-1.2 108.34-2.9 106.79-5.95 105.24-9 105.09-13.05L105.09-13.05Q105.04-15.1 105.04-17.45 105.04-19.8 105.09-21.95L105.09-21.95Q105.24-26 106.79-29.05 108.34-32.1 111.37-33.8 114.39-35.5 118.99-35.5L118.99-35.5Q122.44-35.5 125.04-34.55 127.64-33.6 129.37-32 131.09-30.4 131.99-28.43 132.89-26.45 132.99-24.35L132.99-24.35Q133.04-23.9 132.72-23.6 132.39-23.3 131.94-23.3L131.94-23.3 129.19-23.3Q128.74-23.3 128.42-23.55 128.09-23.8 127.94-24.45L127.94-24.45Q127.09-28.35 124.77-29.8 122.44-31.25 118.99-31.25L118.99-31.25Q114.94-31.25 112.59-28.98 110.24-26.7 110.09-21.7L110.09-21.7Q109.94-17.6 110.09-13.3L110.09-13.3Q110.24-8.3 112.59-6.03 114.94-3.75 118.99-3.75L118.99-3.75Q122.44-3.75 124.77-5.2 127.09-6.65 127.94-10.55L127.94-10.55Q128.09-11.2 128.42-11.45 128.74-11.7 129.19-11.7L129.19-11.7 131.94-11.7Q132.39-11.7 132.72-11.43 133.04-11.15 132.99-10.7L132.99-10.7Q132.89-8.6 131.99-6.6 131.09-4.6 129.37-3 127.64-1.4 125.04-0.45 122.44 0.5 118.99 0.5ZM142.64 0L140.19 0Q139.69 0 139.36-0.33 139.04-0.65 139.04-1.15L139.04-1.15 139.04-24.8Q139.04-25.3 139.36-25.65 139.69-26 140.19-26L140.19-26 142.49-26Q142.99-26 143.34-25.65 143.69-25.3 143.69-24.8L143.69-24.8 143.69-22.6Q144.69-24.3 146.44-25.15 148.19-26 150.69-26L150.69-26 152.64-26Q153.14-26 153.46-25.68 153.79-25.35 153.79-24.85L153.79-24.85 153.79-22.8Q153.79-22.3 153.46-22 153.14-21.7 152.64-21.7L152.64-21.7 149.64-21.7Q146.94-21.7 145.39-20.13 143.84-18.55 143.84-15.85L143.84-15.85 143.84-1.15Q143.84-0.65 143.49-0.33 143.14 0 142.64 0L142.64 0ZM164.94 9.5L162.59 9.5Q162.19 9.5 161.89 9.2 161.59 8.9 161.59 8.5L161.59 8.5Q161.59 8.3 161.64 8.1 161.69 7.9 161.84 7.6L161.84 7.6 165.69-1.55 156.14-24.1Q155.89-24.7 155.89-24.95L155.89-24.95Q155.89-25.4 156.19-25.7 156.49-26 156.94-26L156.94-26 159.39-26Q159.94-26 160.19-25.75 160.44-25.5 160.59-25.15L160.59-25.15 168.19-6.95 175.99-25.15Q176.14-25.5 176.41-25.75 176.69-26 177.24-26L177.24-26 179.59-26Q180.04-26 180.34-25.7 180.64-25.4 180.64-25L180.64-25Q180.64-24.75 180.39-24.1L180.39-24.1 166.19 8.65Q166.04 9 165.76 9.25 165.49 9.5 164.94 9.5L164.94 9.5ZM189.28 9.5L186.83 9.5Q186.33 9.5 186.01 9.18 185.68 8.85 185.68 8.35L185.68 8.35 185.68-24.85Q185.68-25.35 186.01-25.68 186.33-26 186.83-26L186.83-26 189.13-26Q189.63-26 189.96-25.68 190.28-25.35 190.28-24.85L190.28-24.85 190.28-22.65Q191.48-24.3 193.48-25.4 195.48-26.5 198.48-26.5L198.48-26.5Q201.28-26.5 203.26-25.55 205.23-24.6 206.51-22.95 207.78-21.3 208.43-19.2 209.08-17.1 209.18-14.7L209.18-14.7Q209.23-13.9 209.23-13 209.23-12.1 209.18-11.3L209.18-11.3Q209.08-8.95 208.43-6.83 207.78-4.7 206.51-3.08 205.23-1.45 203.26-0.48 201.28 0.5 198.48 0.5L198.48 0.5Q195.58 0.5 193.61-0.58 191.63-1.65 190.38-3.25L190.38-3.25 190.38 8.35Q190.38 8.85 190.08 9.18 189.78 9.5 189.28 9.5L189.28 9.5ZM197.43-3.55L197.43-3.55Q200.03-3.55 201.51-4.67 202.98-5.8 203.63-7.63 204.28-9.45 204.38-11.55L204.38-11.55Q204.43-13 204.38-14.45L204.38-14.45Q204.28-16.55 203.63-18.38 202.98-20.2 201.51-21.33 200.03-22.45 197.43-22.45L197.43-22.45Q194.98-22.45 193.46-21.3 191.93-20.15 191.21-18.38 190.48-16.6 190.38-14.75L190.38-14.75Q190.33-13.95 190.33-12.85 190.33-11.75 190.38-10.9L190.38-10.9Q190.43-9.15 191.21-7.45 191.98-5.75 193.53-4.65 195.08-3.55 197.43-3.55ZM229.03 0L225.58 0Q222.78 0 221.03-1.07 219.28-2.15 218.48-4.13 217.68-6.1 217.68-8.8L217.68-8.8 217.68-22 213.78-22Q213.28-22 212.96-22.33 212.63-22.65 212.63-23.15L212.63-23.15 212.63-24.85Q212.63-25.35 212.96-25.68 213.28-26 213.78-26L213.78-26 217.68-26 217.68-34.35Q217.68-34.85 218.01-35.18 218.33-35.5 218.83-35.5L218.83-35.5 221.18-35.5Q221.68-35.5 222.01-35.18 222.33-34.85 222.33-34.35L222.33-34.35 222.33-26 228.53-26Q229.08-26 229.38-25.68 229.68-25.35 229.68-24.85L229.68-24.85 229.68-23.15Q229.68-22.65 229.38-22.33 229.08-22 228.53-22L228.53-22 222.33-22 222.33-9.15Q222.33-6.8 223.13-5.45 223.93-4.1 225.98-4.1L225.98-4.1 229.03-4.1Q229.53-4.1 229.86-3.78 230.18-3.45 230.18-2.95L230.18-2.95 230.18-1.15Q230.18-0.65 229.86-0.33 229.53 0 229.03 0L229.03 0ZM245.63 0.5L245.63 0.5Q241.83 0.5 239.28-0.95 236.73-2.4 235.38-4.98 234.03-7.55 233.88-10.85L233.88-10.85Q233.83-11.7 233.83-13.03 233.83-14.35 233.88-15.15L233.88-15.15Q234.03-18.5 235.4-21.05 236.78-23.6 239.33-25.05 241.88-26.5 245.63-26.5L245.63-26.5Q249.38-26.5 251.93-25.05 254.48-23.6 255.85-21.05 257.23-18.5 257.38-15.15L257.38-15.15Q257.43-14.35 257.43-13.03 257.43-11.7 257.38-10.85L257.38-10.85Q257.23-7.55 255.88-4.98 254.53-2.4 251.98-0.95 249.43 0.5 245.63 0.5ZM245.63-3.35L245.63-3.35Q248.73-3.35 250.58-5.33 252.43-7.3 252.58-11.1L252.58-11.1Q252.63-11.85 252.63-13 252.63-14.15 252.58-14.9L252.58-14.9Q252.43-18.7 250.58-20.68 248.73-22.65 245.63-22.65L245.63-22.65Q242.53-22.65 240.65-20.68 238.78-18.7 238.68-14.9L238.68-14.9Q238.63-14.15 238.63-13 238.63-11.85 238.68-11.1L238.68-11.1Q238.78-7.3 240.65-5.33 242.53-3.35 245.63-3.35ZM268.18-17.5L264.58-17.5Q264.08-17.5 263.75-17.82 263.43-18.15 263.43-18.65L263.43-18.65 263.43-22.15Q263.43-22.65 263.75-22.98 264.08-23.3 264.58-23.3L264.58-23.3 268.18-23.3Q268.68-23.3 269-22.98 269.33-22.65 269.33-22.15L269.33-22.15 269.33-18.65Q269.33-18.15 269-17.82 268.68-17.5 268.18-17.5L268.18-17.5ZM268.18 0L264.58 0Q264.08 0 263.75-0.33 263.43-0.65 263.43-1.15L263.43-1.15 263.43-4.65Q263.43-5.15 263.75-5.48 264.08-5.8 264.58-5.8L264.58-5.8 268.18-5.8Q268.68-5.8 269-5.48 269.33-5.15 269.33-4.65L269.33-4.65 269.33-1.15Q269.33-0.65 269-0.33 268.68 0 268.18 0L268.18 0ZM300.62 0.5L300.62 0.5Q296.27 0.5 293.32-0.85 290.37-2.2 288.8-4.33 287.22-6.45 287.12-8.8L287.12-8.8Q287.12-9.2 287.45-9.53 287.77-9.85 288.22-9.85L288.22-9.85 290.77-9.85Q291.37-9.85 291.67-9.55 291.97-9.25 292.07-8.85L292.07-8.85Q292.37-7.65 293.32-6.48 294.27-5.3 296.05-4.53 297.82-3.75 300.62-3.75L300.62-3.75Q304.92-3.75 306.95-5.28 308.97-6.8 308.97-9.35L308.97-9.35Q308.97-11.1 307.9-12.18 306.82-13.25 304.62-14.1 302.42-14.95 298.92-15.95L298.92-15.95Q295.27-17 292.87-18.25 290.47-19.5 289.3-21.35 288.12-23.2 288.12-26.05L288.12-26.05Q288.12-28.75 289.57-30.88 291.02-33 293.77-34.25 296.52-35.5 300.37-35.5L300.37-35.5Q303.47-35.5 305.8-34.68 308.12-33.85 309.67-32.48 311.22-31.1 312.02-29.53 312.82-27.95 312.87-26.45L312.87-26.45Q312.87-26.1 312.62-25.78 312.37-25.45 311.82-25.45L311.82-25.45 309.17-25.45Q308.82-25.45 308.45-25.65 308.07-25.85 307.87-26.4L307.87-26.4Q307.57-28.45 305.57-29.85 303.57-31.25 300.37-31.25L300.37-31.25Q297.12-31.25 295.1-30 293.07-28.75 293.07-26.1L293.07-26.1Q293.07-24.4 294.02-23.28 294.97-22.15 297.02-21.3 299.07-20.45 302.37-19.5L302.37-19.5Q306.37-18.4 308.92-17.18 311.47-15.95 312.7-14.13 313.92-12.3 313.92-9.45L313.92-9.45Q313.92-6.3 312.27-4.08 310.62-1.85 307.65-0.68 304.67 0.5 300.62 0.5ZM323.37 0L320.97 0Q320.47 0 320.14-0.33 319.82-0.65 319.82-1.15L319.82-1.15 319.82-24.85Q319.82-25.35 320.14-25.68 320.47-26 320.97-26L320.97-26 323.37-26Q323.87-26 324.19-25.68 324.52-25.35 324.52-24.85L324.52-24.85 324.52-1.15Q324.52-0.65 324.19-0.33 323.87 0 323.37 0L323.37 0ZM323.72-30.85L320.57-30.85Q320.07-30.85 319.74-31.18 319.42-31.5 319.42-32L319.42-32 319.42-34.7Q319.42-35.2 319.74-35.55 320.07-35.9 320.57-35.9L320.57-35.9 323.72-35.9Q324.22-35.9 324.57-35.55 324.92-35.2 324.92-34.7L324.92-34.7 324.92-32Q324.92-31.5 324.57-31.18 324.22-30.85 323.72-30.85L323.72-30.85ZM335.47 0L333.07 0Q332.57 0 332.24-0.33 331.92-0.65 331.92-1.15L331.92-1.15 331.92-24.85Q331.92-25.35 332.24-25.68 332.57-26 333.07-26L333.07-26 335.32-26Q335.82-26 336.14-25.68 336.47-25.35 336.47-24.85L336.47-24.85 336.47-23.1Q337.62-24.65 339.37-25.58 341.12-26.5 343.57-26.5L343.57-26.5Q349.22-26.55 351.57-21.9L351.57-21.9Q352.72-24 354.92-25.25 357.12-26.5 359.92-26.5L359.92-26.5Q362.52-26.5 364.64-25.3 366.77-24.1 367.99-21.68 369.22-19.25 369.22-15.6L369.22-15.6 369.22-1.15Q369.22-0.65 368.89-0.33 368.57 0 368.07 0L368.07 0 365.72 0Q365.22 0 364.89-0.33 364.57-0.65 364.57-1.15L364.57-1.15 364.57-15.15Q364.57-17.95 363.77-19.55 362.97-21.15 361.62-21.8 360.27-22.45 358.67-22.45L358.67-22.45Q357.37-22.45 356.02-21.8 354.67-21.15 353.79-19.55 352.92-17.95 352.92-15.15L352.92-15.15 352.92-1.15Q352.92-0.65 352.59-0.33 352.27 0 351.77 0L351.77 0 349.42 0Q348.92 0 348.59-0.33 348.27-0.65 348.27-1.15L348.27-1.15 348.27-15.15Q348.27-17.95 347.42-19.55 346.57-21.15 345.22-21.8 343.87-22.45 342.37-22.45L342.37-22.45Q341.07-22.45 339.72-21.8 338.37-21.15 337.49-19.55 336.62-17.95 336.62-15.2L336.62-15.2 336.62-1.15Q336.62-0.65 336.29-0.33 335.97 0 335.47 0L335.47 0ZM380.01 9.5L377.56 9.5Q377.06 9.5 376.74 9.18 376.41 8.85 376.41 8.35L376.41 8.35 376.41-24.85Q376.41-25.35 376.74-25.68 377.06-26 377.56-26L377.56-26 379.86-26Q380.36-26 380.69-25.68 381.01-25.35 381.01-24.85L381.01-24.85 381.01-22.65Q382.21-24.3 384.21-25.4 386.21-26.5 389.21-26.5L389.21-26.5Q392.01-26.5 393.99-25.55 395.96-24.6 397.24-22.95 398.51-21.3 399.16-19.2 399.81-17.1 399.91-14.7L399.91-14.7Q399.96-13.9 399.96-13 399.96-12.1 399.91-11.3L399.91-11.3Q399.81-8.95 399.16-6.83 398.51-4.7 397.24-3.08 395.96-1.45 393.99-0.48 392.01 0.5 389.21 0.5L389.21 0.5Q386.31 0.5 384.34-0.58 382.36-1.65 381.11-3.25L381.11-3.25 381.11 8.35Q381.11 8.85 380.81 9.18 380.51 9.5 380.01 9.5L380.01 9.5ZM388.16-3.55L388.16-3.55Q390.76-3.55 392.24-4.67 393.71-5.8 394.36-7.63 395.01-9.45 395.11-11.55L395.11-11.55Q395.16-13 395.11-14.45L395.11-14.45Q395.01-16.55 394.36-18.38 393.71-20.2 392.24-21.33 390.76-22.45 388.16-22.45L388.16-22.45Q385.71-22.45 384.19-21.3 382.66-20.15 381.94-18.38 381.21-16.6 381.11-14.75L381.11-14.75Q381.06-13.95 381.06-12.85 381.06-11.75 381.11-10.9L381.11-10.9Q381.16-9.15 381.94-7.45 382.71-5.75 384.26-4.65 385.81-3.55 388.16-3.55ZM409.71 0L407.36 0Q406.86 0 406.54-0.33 406.21-0.65 406.21-1.15L406.21-1.15 406.21-34.35Q406.21-34.85 406.54-35.18 406.86-35.5 407.36-35.5L407.36-35.5 409.71-35.5Q410.26-35.5 410.56-35.18 410.86-34.85 410.86-34.35L410.86-34.35 410.86-1.15Q410.86-0.65 410.56-0.33 410.26 0 409.71 0L409.71 0ZM421.86 0L419.46 0Q418.96 0 418.63-0.33 418.31-0.65 418.31-1.15L418.31-1.15 418.31-24.85Q418.31-25.35 418.63-25.68 418.96-26 419.46-26L419.46-26 421.86-26Q422.36-26 422.68-25.68 423.01-25.35 423.01-24.85L423.01-24.85 423.01-1.15Q423.01-0.65 422.68-0.33 422.36 0 421.86 0L421.86 0ZM422.21-30.85L419.06-30.85Q418.56-30.85 418.23-31.18 417.91-31.5 417.91-32L417.91-32 417.91-34.7Q417.91-35.2 418.23-35.55 418.56-35.9 419.06-35.9L419.06-35.9 422.21-35.9Q422.71-35.9 423.06-35.55 423.41-35.2 423.41-34.7L423.41-34.7 423.41-32Q423.41-31.5 423.06-31.18 422.71-30.85 422.21-30.85L422.21-30.85ZM436.51 0L434.16 0Q433.66 0 433.33-0.33 433.01-0.65 433.01-1.15L433.01-1.15 433.01-22 428.76-22Q428.26-22 427.93-22.33 427.61-22.65 427.61-23.15L427.61-23.15 427.61-24.85Q427.61-25.35 427.93-25.68 428.26-26 428.76-26L428.76-26 433.01-26 433.01-28.5Q433.01-31.05 433.86-32.98 434.71-34.9 436.58-35.95 438.46-37 441.61-37L441.61-37 444.61-37Q445.11-37 445.43-36.68 445.76-36.35 445.76-35.85L445.76-35.85 445.76-34.15Q445.76-33.65 445.43-33.33 445.11-33 444.61-33L444.61-33 441.71-33Q439.36-33 438.51-31.78 437.66-30.55 437.66-28.25L437.66-28.25 437.66-26 444.11-26Q444.61-26 444.93-25.68 445.26-25.35 445.26-24.85L445.26-24.85 445.26-23.15Q445.26-22.65 444.93-22.33 444.61-22 444.11-22L444.11-22 437.66-22 437.66-1.15Q437.66-0.65 437.33-0.33 437.01 0 436.51 0L436.51 0ZM456.55 9.5L454.2 9.5Q453.8 9.5 453.5 9.2 453.2 8.9 453.2 8.5L453.2 8.5Q453.2 8.3 453.25 8.1 453.3 7.9 453.45 7.6L453.45 7.6 457.3-1.55 447.75-24.1Q447.5-24.7 447.5-24.95L447.5-24.95Q447.5-25.4 447.8-25.7 448.1-26 448.55-26L448.55-26 451-26Q451.55-26 451.8-25.75 452.05-25.5 452.2-25.15L452.2-25.15 459.8-6.95 467.6-25.15Q467.75-25.5 468.03-25.75 468.3-26 468.85-26L468.85-26 471.2-26Q471.65-26 471.95-25.7 472.25-25.4 472.25-25L472.25-25Q472.25-24.75 472-24.1L472-24.1 457.8 8.65Q457.65 9 457.38 9.25 457.1 9.5 456.55 9.5L456.55 9.5ZM480.8 0L478.4 0Q477.9 0 477.58-0.33 477.25-0.65 477.25-1.15L477.25-1.15 477.25-24.85Q477.25-25.35 477.58-25.68 477.9-26 478.4-26L478.4-26 480.8-26Q481.3-26 481.63-25.68 481.95-25.35 481.95-24.85L481.95-24.85 481.95-1.15Q481.95-0.65 481.63-0.33 481.3 0 480.8 0L480.8 0ZM481.15-30.85L478-30.85Q477.5-30.85 477.18-31.18 476.85-31.5 476.85-32L476.85-32 476.85-34.7Q476.85-35.2 477.18-35.55 477.5-35.9 478-35.9L478-35.9 481.15-35.9Q481.65-35.9 482-35.55 482.35-35.2 482.35-34.7L482.35-34.7 482.35-32Q482.35-31.5 482-31.18 481.65-30.85 481.15-30.85L481.15-30.85ZM493 0L490.5 0Q490 0 489.67-0.33 489.35-0.65 489.35-1.15L489.35-1.15 489.35-24.85Q489.35-25.35 489.67-25.68 490-26 490.5-26L490.5-26 492.85-26Q493.35-26 493.67-25.68 494-25.35 494-24.85L494-24.85 494-22.65Q495.3-24.35 497.27-25.43 499.25-26.5 502.35-26.5L502.35-26.5Q505.6-26.5 507.87-25.08 510.15-23.65 511.32-21.13 512.5-18.6 512.5-15.25L512.5-15.25 512.5-1.15Q512.5-0.65 512.17-0.33 511.85 0 511.35 0L511.35 0 508.85 0Q508.35 0 508.02-0.33 507.7-0.65 507.7-1.15L507.7-1.15 507.7-15Q507.7-18.5 506-20.48 504.3-22.45 501-22.45L501-22.45Q497.9-22.45 496.02-20.48 494.15-18.5 494.15-15L494.15-15 494.15-1.15Q494.15-0.65 493.82-0.33 493.5 0 493 0L493 0ZM530.3 11L530.3 11Q526.9 11 524.72 10.1 522.55 9.2 521.32 7.93 520.1 6.65 519.57 5.38 519.05 4.1 519 3.35L519 3.35Q518.95 2.85 519.32 2.5 519.7 2.15 520.15 2.15L520.15 2.15 522.55 2.15Q523 2.15 523.3 2.35 523.6 2.55 523.8 3.2L523.8 3.2Q524.1 3.95 524.7 4.88 525.3 5.8 526.55 6.48 527.8 7.15 530.05 7.15L530.05 7.15Q532.4 7.15 534 6.5 535.6 5.85 536.42 4.3 537.25 2.75 537.25 0L537.25 0 537.25-3.4Q536.05-1.85 534.1-0.83 532.15 0.2 529.2 0.2L529.2 0.2Q526.4 0.2 524.4-0.78 522.4-1.75 521.12-3.43 519.85-5.1 519.22-7.25 518.6-9.4 518.5-11.75L518.5-11.75Q518.45-13.15 518.5-14.5L518.5-14.5Q518.6-16.85 519.22-19 519.85-21.15 521.12-22.85 522.4-24.55 524.4-25.53 526.4-26.5 529.2-26.5L529.2-26.5Q532.2-26.5 534.17-25.4 536.15-24.3 537.4-22.65L537.4-22.65 537.4-24.8Q537.4-25.3 537.72-25.65 538.05-26 538.55-26L538.55-26 540.85-26Q541.35-26 541.7-25.65 542.05-25.3 542.05-24.8L542.05-24.8 542.05-0.55Q542.05 2.8 540.92 5.4 539.8 8 537.22 9.5 534.65 11 530.3 11ZM530.2-3.8L530.2-3.8Q532.7-3.8 534.22-4.95 535.75-6.1 536.47-7.85 537.2-9.6 537.25-11.4L537.25-11.4Q537.3-12.1 537.3-13.13 537.3-14.15 537.25-14.85L537.25-14.85Q537.2-16.65 536.47-18.4 535.75-20.15 534.22-21.3 532.7-22.45 530.2-22.45L530.2-22.45Q527.7-22.45 526.2-21.33 524.7-20.2 524.05-18.38 523.4-16.55 523.3-14.45L523.3-14.45Q523.25-13.15 523.3-11.8L523.3-11.8Q523.4-9.7 524.05-7.88 524.7-6.05 526.2-4.93 527.7-3.8 530.2-3.8ZM573.64 0.5L573.64 0.5Q569.29 0.5 566.34-0.85 563.39-2.2 561.82-4.33 560.24-6.45 560.14-8.8L560.14-8.8Q560.14-9.2 560.47-9.53 560.79-9.85 561.24-9.85L561.24-9.85 563.79-9.85Q564.39-9.85 564.69-9.55 564.99-9.25 565.09-8.85L565.09-8.85Q565.39-7.65 566.34-6.48 567.29-5.3 569.07-4.53 570.84-3.75 573.64-3.75L573.64-3.75Q577.94-3.75 579.97-5.28 581.99-6.8 581.99-9.35L581.99-9.35Q581.99-11.1 580.92-12.18 579.84-13.25 577.64-14.1 575.44-14.95 571.94-15.95L571.94-15.95Q568.29-17 565.89-18.25 563.49-19.5 562.32-21.35 561.14-23.2 561.14-26.05L561.14-26.05Q561.14-28.75 562.59-30.88 564.04-33 566.79-34.25 569.54-35.5 573.39-35.5L573.39-35.5Q576.49-35.5 578.82-34.68 581.14-33.85 582.69-32.48 584.24-31.1 585.04-29.53 585.84-27.95 585.89-26.45L585.89-26.45Q585.89-26.1 585.64-25.78 585.39-25.45 584.84-25.45L584.84-25.45 582.19-25.45Q581.84-25.45 581.47-25.65 581.09-25.85 580.89-26.4L580.89-26.4Q580.59-28.45 578.59-29.85 576.59-31.25 573.39-31.25L573.39-31.25Q570.14-31.25 568.12-30 566.09-28.75 566.09-26.1L566.09-26.1Q566.09-24.4 567.04-23.28 567.99-22.15 570.04-21.3 572.09-20.45 575.39-19.5L575.39-19.5Q579.39-18.4 581.94-17.18 584.49-15.95 585.72-14.13 586.94-12.3 586.94-9.45L586.94-9.45Q586.94-6.3 585.29-4.08 583.64-1.85 580.67-0.68 577.69 0.5 573.64 0.5ZM602.54 0.5L602.54 0.5Q599.34 0.5 597.11-0.93 594.89-2.35 593.74-4.9 592.59-7.45 592.59-10.75L592.59-10.75 592.59-24.85Q592.59-25.35 592.91-25.68 593.24-26 593.74-26L593.74-26 596.24-26Q596.74-26 597.06-25.68 597.39-25.35 597.39-24.85L597.39-24.85 597.39-11Q597.39-3.55 603.89-3.55L603.89-3.55Q606.99-3.55 608.86-5.53 610.74-7.5 610.74-11L610.74-11 610.74-24.85Q610.74-25.35 611.06-25.68 611.39-26 611.89-26L611.89-26 614.39-26Q614.89-26 615.19-25.68 615.49-25.35 615.49-24.85L615.49-24.85 615.49-1.15Q615.49-0.65 615.19-0.33 614.89 0 614.39 0L614.39 0 612.04 0Q611.54 0 611.21-0.33 610.89-0.65 610.89-1.15L610.89-1.15 610.89-3.35Q609.54-1.6 607.61-0.55 605.69 0.5 602.54 0.5ZM633.44 0.5L633.44 0.5Q629.88 0.5 627.31-0.88 624.74-2.25 623.34-4.83 621.94-7.4 621.84-11L621.84-11Q621.78-11.75 621.78-13 621.78-14.25 621.84-15L621.84-15Q621.94-18.6 623.34-21.18 624.74-23.75 627.31-25.13 629.88-26.5 633.44-26.5L633.44-26.5Q636.34-26.5 638.41-25.7 640.49-24.9 641.84-23.65 643.19-22.4 643.86-20.95 644.53-19.5 644.59-18.2L644.59-18.2Q644.63-17.7 644.28-17.4 643.94-17.1 643.44-17.1L643.44-17.1 641.03-17.1Q640.53-17.1 640.28-17.32 640.03-17.55 639.78-18.1L639.78-18.1Q638.88-20.55 637.34-21.55 635.78-22.55 633.49-22.55L633.49-22.55Q630.49-22.55 628.61-20.7 626.74-18.85 626.59-14.75L626.59-14.75Q626.53-12.95 626.59-11.25L626.59-11.25Q626.74-7.1 628.61-5.28 630.49-3.45 633.49-3.45L633.49-3.45Q635.78-3.45 637.34-4.45 638.88-5.45 639.78-7.9L639.78-7.9Q640.03-8.45 640.28-8.7 640.53-8.95 641.03-8.95L641.03-8.95 643.44-8.95Q643.94-8.95 644.28-8.63 644.63-8.3 644.59-7.8L644.59-7.8Q644.53-6.75 644.13-5.65 643.74-4.55 642.86-3.43 641.99-2.3 640.69-1.43 639.38-0.55 637.59-0.03 635.78 0.5 633.44 0.5ZM661.03 0.5L661.03 0.5Q657.48 0.5 654.91-0.88 652.33-2.25 650.93-4.83 649.53-7.4 649.43-11L649.43-11Q649.38-11.75 649.38-13 649.38-14.25 649.43-15L649.43-15Q649.53-18.6 650.93-21.18 652.33-23.75 654.91-25.13 657.48-26.5 661.03-26.5L661.03-26.5Q663.93-26.5 666.01-25.7 668.08-24.9 669.43-23.65 670.78-22.4 671.46-20.95 672.13-19.5 672.18-18.2L672.18-18.2Q672.23-17.7 671.88-17.4 671.53-17.1 671.03-17.1L671.03-17.1 668.63-17.1Q668.13-17.1 667.88-17.32 667.63-17.55 667.38-18.1L667.38-18.1Q666.48-20.55 664.93-21.55 663.38-22.55 661.08-22.55L661.08-22.55Q658.08-22.55 656.21-20.7 654.33-18.85 654.18-14.75L654.18-14.75Q654.13-12.95 654.18-11.25L654.18-11.25Q654.33-7.1 656.21-5.28 658.08-3.45 661.08-3.45L661.08-3.45Q663.38-3.45 664.93-4.45 666.48-5.45 667.38-7.9L667.38-7.9Q667.63-8.45 667.88-8.7 668.13-8.95 668.63-8.95L668.63-8.95 671.03-8.95Q671.53-8.95 671.88-8.63 672.23-8.3 672.18-7.8L672.18-7.8Q672.13-6.75 671.73-5.65 671.33-4.55 670.46-3.43 669.58-2.3 668.28-1.43 666.98-0.55 665.18-0.03 663.38 0.5 661.03 0.5ZM688.53 0.5L688.53 0.5Q683.33 0.5 680.28-2.68 677.23-5.85 676.93-11.35L676.93-11.35Q676.88-12 676.88-13.03 676.88-14.05 676.93-14.7L676.93-14.7Q677.13-18.25 678.58-20.93 680.03-23.6 682.55-25.05 685.08-26.5 688.48-26.5L688.48-26.5Q692.28-26.5 694.85-24.9 697.43-23.3 698.78-20.35 700.13-17.4 700.13-13.45L700.13-13.45 700.13-12.6Q700.13-12.05 699.8-11.75 699.48-11.45 698.98-11.45L698.98-11.45 681.68-11.45Q681.68-11.4 681.68-11.25 681.68-11.1 681.68-11L681.68-11Q681.78-8.95 682.58-7.18 683.38-5.4 684.9-4.3 686.43-3.2 688.48-3.2L688.48-3.2Q690.28-3.2 691.48-3.75 692.68-4.3 693.43-4.98 694.18-5.65 694.43-6.05L694.43-6.05Q694.88-6.65 695.13-6.78 695.38-6.9 695.93-6.9L695.93-6.9 698.38-6.9Q698.83-6.9 699.15-6.63 699.48-6.35 699.43-5.85L699.43-5.85Q699.38-5.1 698.63-4.03 697.88-2.95 696.5-1.9 695.13-0.85 693.1-0.18 691.08 0.5 688.53 0.5ZM681.68-15.05L681.68-14.9 695.38-14.9 695.38-15.05Q695.38-17.3 694.55-19.05 693.73-20.8 692.18-21.83 690.63-22.85 688.48-22.85L688.48-22.85Q686.33-22.85 684.8-21.83 683.28-20.8 682.48-19.05 681.68-17.3 681.68-15.05L681.68-15.05ZM715.13 0.5L715.13 0.5Q712.33 0.5 710.33-0.2 708.33-0.9 707.08-1.9 705.83-2.9 705.2-3.9 704.58-4.9 704.53-5.5L704.53-5.5Q704.48-6.05 704.88-6.35 705.28-6.65 705.68-6.65L705.68-6.65 707.93-6.65Q708.18-6.65 708.35-6.58 708.53-6.5 708.83-6.15L708.83-6.15Q709.48-5.45 710.28-4.75 711.08-4.05 712.25-3.6 713.43-3.15 715.18-3.15L715.18-3.15Q717.73-3.15 719.38-4.13 721.03-5.1 721.03-7L721.03-7Q721.03-8.25 720.35-9 719.68-9.75 717.95-10.35 716.23-10.95 713.23-11.6L713.23-11.6Q710.23-12.3 708.48-13.33 706.73-14.35 705.98-15.78 705.23-17.2 705.23-19L705.23-19Q705.23-20.85 706.33-22.58 707.43-24.3 709.55-25.4 711.68-26.5 714.88-26.5L714.88-26.5Q717.48-26.5 719.33-25.85 721.18-25.2 722.38-24.23 723.58-23.25 724.18-22.3 724.78-21.35 724.83-20.7L724.83-20.7Q724.88-20.2 724.53-19.88 724.18-19.55 723.73-19.55L723.73-19.55 721.63-19.55Q721.28-19.55 721.05-19.7 720.83-19.85 720.63-20.05L720.63-20.05Q720.13-20.7 719.45-21.35 718.78-22 717.7-22.43 716.63-22.85 714.88-22.85L714.88-22.85Q712.38-22.85 711.13-21.8 709.88-20.75 709.88-19.15L709.88-19.15Q709.88-18.2 710.43-17.45 710.98-16.7 712.53-16.1 714.08-15.5 717.13-14.8L717.13-14.8Q720.43-14.15 722.33-13.05 724.23-11.95 725.03-10.5 725.83-9.05 725.83-7.15L725.83-7.15Q725.83-5.05 724.63-3.3 723.43-1.55 721.03-0.53 718.63 0.5 715.13 0.5ZM740.62 0.5L740.62 0.5Q737.82 0.5 735.82-0.2 733.82-0.9 732.57-1.9 731.32-2.9 730.7-3.9 730.07-4.9 730.02-5.5L730.02-5.5Q729.97-6.05 730.37-6.35 730.77-6.65 731.17-6.65L731.17-6.65 733.42-6.65Q733.67-6.65 733.85-6.58 734.02-6.5 734.32-6.15L734.32-6.15Q734.97-5.45 735.77-4.75 736.57-4.05 737.75-3.6 738.92-3.15 740.67-3.15L740.67-3.15Q743.22-3.15 744.87-4.13 746.52-5.1 746.52-7L746.52-7Q746.52-8.25 745.85-9 745.17-9.75 743.45-10.35 741.72-10.95 738.72-11.6L738.72-11.6Q735.72-12.3 733.97-13.33 732.22-14.35 731.47-15.78 730.72-17.2 730.72-19L730.72-19Q730.72-20.85 731.82-22.58 732.92-24.3 735.05-25.4 737.17-26.5 740.37-26.5L740.37-26.5Q742.97-26.5 744.82-25.85 746.67-25.2 747.87-24.23 749.07-23.25 749.67-22.3 750.27-21.35 750.32-20.7L750.32-20.7Q750.37-20.2 750.02-19.88 749.67-19.55 749.22-19.55L749.22-19.55 747.12-19.55Q746.77-19.55 746.55-19.7 746.32-19.85 746.12-20.05L746.12-20.05Q745.62-20.7 744.95-21.35 744.27-22 743.2-22.43 742.12-22.85 740.37-22.85L740.37-22.85Q737.87-22.85 736.62-21.8 735.37-20.75 735.37-19.15L735.37-19.15Q735.37-18.2 735.92-17.45 736.47-16.7 738.02-16.1 739.57-15.5 742.62-14.8L742.62-14.8Q745.92-14.15 747.82-13.05 749.72-11.95 750.52-10.5 751.32-9.05 751.32-7.15L751.32-7.15Q751.32-5.05 750.12-3.3 748.92-1.55 746.52-0.53 744.12 0.5 740.62 0.5Z" opacity="1" transform="matrix(1,0,0,1,0,0)" fill="#000000" class="slogan-text-1" data-fill-palette-color="secondary" id="text-1"></path></svg></g></svg></g></svg></g></svg></g><g><svg viewBox="0 0 141.9387874396313 141.9387874396313" height="141.9387874396313" width="141.9387874396313"><g><svg></svg></g><g id="icon-0"><svg viewBox="0 0 141.9387874396313 141.9387874396313" height="141.9387874396313" width="141.9387874396313"><g><path transform="scale(1.41939,1.41939)" d="M30 100c-16.569 0-30-13.431-30-30v-40c0-16.569 13.431-30 30-30h40c16.569 0 30 13.431 30 30v40c0 16.569-13.431 30-30 30z" fill="#000000" fill-rule="nonzero" stroke="none" stroke-width="1" stroke-linecap="butt" stroke-linejoin="miter" stroke-miterlimit="10" stroke-dasharray="" stroke-dashoffset="0" font-family="none" font-weight="none" font-size="none" text-anchor="none" style="mix-blend-mode: normal" data-fill-palette-color="accent"></path></g><g transform="matrix(1,0,0,1,28.387757487926265,42.726697672652705)"><svg viewBox="0 0 85.16327246377878 56.48539209432591" height="56.48539209432591" width="85.16327246377878"><g><svg xmlns="http://www.w3.org/2000/svg" xmlns:xlink="http://www.w3.org/1999/xlink" version="1.1" x="0" y="0" viewBox="0 14.082000000000008 100 66.326" enable-background="new 0 0 100 100" xml:space="preserve" height="56.48539209432591" width="85.16327246377878" class="icon-z$-0" data-fill-palette-color="quaternary" id="z$-0"><path fill="#ffffff" d="M0 80.408l40.816-66.326 30.803 45.911-9.555 9.378 1.201 1.854 18.367-18.367L100 80.408H0zM40.985 20.207L27.208 42.271l5.934-3.629 2.108 10.983 4.265-13.435 7.404 13.189 0.588-11.081 11.031 9.023L40.985 20.207z" data-fill-palette-color="quaternary"></path></svg></g></svg></g></svg></g></svg></g></svg></g><defs></defs></svg><rect width="395.52" height="101.29304033865472" fill="none" stroke="none" visibility="hidden"></rect></g></svg></g></svg>